<svg width="81" height="82" viewBox="0 0 81 82" fill="none" xmlns="http://www.w3.org/2000/svg">
<path d="M23.7676 63.5947C20.1605 66.0984 15.7383 61.8033 18.1356 58.1247L27.136 44.3142C28.5105 42.2051 31.4682 41.8749 33.2741 43.6288L37.8158 48.0399C39.6217 49.7938 39.3778 52.7599 37.3097 54.1953L23.7676 63.5947Z" fill="#80BBE4"/>
<path d="M56.9003 18.352C60.503 15.8509 64.9236 20.1337 62.5378 23.8138L52.9947 38.5338C51.6242 40.6477 48.6644 40.9837 46.855 39.2307L41.9876 34.515C40.1782 32.7621 40.4203 29.7931 42.4898 28.3564L56.9003 18.352Z" fill="#80BBE4"/>
<path d="M62.345 57.673C64.8002 61.3133 60.4464 65.6776 56.8002 63.2312L43.1112 54.0469C41.0208 52.6444 40.7301 49.6825 42.508 47.9003L46.9795 43.418C48.7574 41.6357 51.72 41.9192 53.1276 44.0063L62.345 57.673Z" fill="#80BBE4"/>
<path d="M18.3966 25.0335C15.9539 21.3849 20.3226 17.0354 23.9605 19.4942L37.6179 28.7253C39.7036 30.135 39.9841 33.0978 38.2001 34.8739L33.7134 39.341C31.9294 41.1171 28.9678 40.8235 27.5673 38.7316L18.3966 25.0335Z" fill="#80BBE4"/>
</svg>
