<svg width="75" height="71" viewBox="0 0 75 71" fill="none" xmlns="http://www.w3.org/2000/svg">
<path d="M16.5359 37C18.0755 34.3333 21.9245 34.3333 23.4641 37L33.8564 55C35.396 57.6667 33.4715 61 30.3923 61H9.6077C6.5285 61 4.60399 57.6667 6.14359 55L16.5359 37Z" fill="#80BBE4"/>
<path d="M50.8564 37C52.396 34.3333 56.245 34.3333 57.7846 37L68.1769 55C69.7165 57.6667 67.792 61 64.7128 61H43.9282C40.849 61 38.9245 57.6667 40.4641 55L50.8564 37Z" fill="#80BBE4"/>
<path d="M33.5359 6C35.0755 3.33334 38.9245 3.33333 40.4641 6L50.8564 24C52.396 26.6667 50.4715 30 47.3923 30H26.6077C23.5285 30 21.604 26.6667 23.1436 24L33.5359 6Z" fill="#80BBE4"/>
</svg>
