<svg width="504" height="497" viewBox="0 0 504 497" fill="none" xmlns="http://www.w3.org/2000/svg">
<g filter="url(#filter0_d_16_103)">
<path d="M340.947 336.478L307.875 328.619L331.939 303.7L340.947 336.478Z" fill="#80BBE4"/>
<path d="M337.947 334.478L304.875 326.619L328.939 301.7L337.947 334.478Z" fill="#4A5A65"/>
<circle cx="251" cy="245" r="202" stroke="#80BBE4" stroke-width="2"/>
<circle cx="251.5" cy="245.5" r="208" stroke="#80BBE4"/>
<path d="M46.5 179.5C57.1667 142.167 99 62.5 181 42.5" stroke="#CDEBFF" stroke-width="4"/>
<path d="M176.137 445.986C139.413 433.38 62.0445 387.434 46.3635 304.5" stroke="#CDEBFF" stroke-width="4"/>
<path d="M323.934 43.0648C361.076 54.3814 440 97.5987 458.566 179.935" stroke="#CDEBFF" stroke-width="4"/>
<path d="M460.794 306.08C450.781 343.593 410.344 423.978 328.706 445.406" stroke="#CDEBFF" stroke-width="4"/>
<path d="M251 141L265.722 170.25H236.278L251 141Z" fill="#80BBE4"/>
<path d="M251 137L265.722 166.25H236.278L251 137Z" fill="#4A5A65"/>
<path d="M251 123L265.722 159H236.278L251 123Z" fill="#80BBE4"/>
<path d="M332.947 328.478L299.875 320.619L323.939 295.7L332.947 328.478Z" fill="#80BBE4"/>
<path fill-rule="evenodd" clip-rule="evenodd" d="M289.51 169.852C289.694 169.198 289.862 168.538 290.013 167.872C320.181 182.406 341 213.272 341 249C341 261.691 338.373 273.768 333.634 284.718C332.991 284.523 332.342 284.344 331.686 284.181C336.39 273.406 339 261.508 339 249C339 214.21 318.811 184.135 289.51 169.852ZM211.987 167.872C212.138 168.538 212.306 169.198 212.489 169.852C183.189 184.135 163 214.21 163 249C163 263.181 166.355 276.579 172.313 288.443C171.659 288.624 171.012 288.821 170.372 289.034C164.373 276.976 161 263.382 161 249C161 213.272 181.819 182.406 211.987 167.872ZM222.329 334.337C231.334 337.361 240.976 339 251 339C262.373 339 273.253 336.89 283.271 333.041C283.103 332.392 282.951 331.735 282.815 331.073C272.948 334.9 262.219 337 251 337C241.08 337 231.544 335.359 222.648 332.333C222.558 333.006 222.451 333.674 222.329 334.337Z" fill="#80BBE4"/>
<path d="M175.126 309.847L200.242 332.755L167.114 342.883L175.126 309.847Z" fill="#80BBE4"/>
<path d="M178.126 305.847L203.242 328.755L170.114 338.883L178.126 305.847Z" fill="#4A5A65"/>
<path d="M184.126 298.847L209.242 321.755L176.114 331.883L184.126 298.847Z" fill="#80BBE4"/>
<circle cx="251" cy="245" r="28.5" stroke="#6C7074" stroke-width="3"/>
<g filter="url(#filter1_d_16_103)">
<path fill-rule="evenodd" clip-rule="evenodd" d="M266.681 218.442C266.382 219.796 265.882 221.081 265.211 222.268C272.069 226.934 276.713 234.887 276.987 244.07C278.387 244.204 279.733 244.523 281 245.004L281 244.933C281 233.727 275.271 223.907 266.681 218.442ZM251 272C255.371 272 259.51 270.869 263.148 268.864C263.986 269.969 264.97 270.958 266.069 271.802C261.641 274.471 256.493 276 251 276C243.555 276 236.743 273.191 231.499 268.542C233.031 268.183 234.478 267.624 235.807 266.895C240.097 270.113 245.355 272 251 272ZM225.838 238.078C227.566 231.169 231.845 225.373 237.527 221.784C236.903 220.572 236.454 219.267 236.211 217.897C228.706 222.309 223.219 229.975 221.538 239.043C222.894 238.549 224.336 238.219 225.838 238.078Z" fill="#86E2FF"/>
</g>
<path d="M494.163 244.624C494.163 248.946 490.885 252.249 487.082 252.249C483.278 252.249 480 248.946 480 244.624C480 240.303 483.278 237 487.082 237C490.885 237 494.163 240.303 494.163 244.624Z" stroke="#B6E1FF" stroke-width="4"/>
<path d="M10 244.624C10 240.303 13.2783 237 17.0815 237C20.8847 237 24.163 240.303 24.163 244.624C24.163 248.946 20.8847 252.249 17.0815 252.249C13.2783 252.249 10 248.946 10 244.624Z" stroke="#B6E1FF" stroke-width="4"/>
<path d="M253.624 23.163C249.303 23.163 246 19.8847 246 16.0815C246 12.2783 249.303 9 253.624 9C257.946 9 261.249 12.2783 261.249 16.0815C261.249 19.8847 257.946 23.163 253.624 23.163Z" stroke="#B6E1FF" stroke-width="4"/>
<path d="M261.163 478.624C261.163 482.946 257.885 486.249 254.081 486.249C250.278 486.249 247 482.946 247 478.624C247 474.303 250.278 471 254.081 471C257.885 471 261.163 474.303 261.163 478.624Z" stroke="#B6E1FF" stroke-width="4"/>
<path fill-rule="evenodd" clip-rule="evenodd" d="M487 229C478.163 229 471 236.163 471 245C471 253.837 478.163 261 487 261V259C479.268 259 473 252.732 473 245C473 237.268 479.268 231 487 231V229Z" fill="#80BBE4"/>
<path fill-rule="evenodd" clip-rule="evenodd" d="M17 261C25.8366 261 33 253.837 33 245C33 236.163 25.8366 229 17 229V231C24.732 231 31 237.268 31 245C31 252.732 24.732 259 17 259V261Z" fill="#80BBE4"/>
<path fill-rule="evenodd" clip-rule="evenodd" d="M238 15C238 23.8366 245.163 31 254 31C262.837 31 270 23.8366 270 15H268C268 22.732 261.732 29 254 29C246.268 29 240 22.732 240 15H238Z" fill="#80BBE4"/>
<path fill-rule="evenodd" clip-rule="evenodd" d="M270 478C270 469.163 262.837 462 254 462C245.163 462 238 469.163 238 478H240C240 470.268 246.268 464 254 464C261.732 464 268 470.268 268 478H270Z" fill="#80BBE4"/>
<path fill-rule="evenodd" clip-rule="evenodd" d="M290.932 244.637L471 245.078L471.002 244.078L290.862 243.637C290.89 243.969 290.913 244.303 290.932 244.637ZM212.154 243.444L31.0025 243L31 244L212.079 244.444C212.1 244.109 212.125 243.776 212.154 243.444Z" fill="#80BBE4"/>
</g>
<defs>
<filter id="filter0_d_16_103" x="0.7" y="0.7" width="502.763" height="495.849" filterUnits="userSpaceOnUse" color-interpolation-filters="sRGB">
<feFlood flood-opacity="0" result="BackgroundImageFix"/>
<feColorMatrix in="SourceAlpha" type="matrix" values="0 0 0 0 0 0 0 0 0 0 0 0 0 0 0 0 0 0 127 0" result="hardAlpha"/>
<feOffset dy="1"/>
<feGaussianBlur stdDeviation="3.65"/>
<feComposite in2="hardAlpha" operator="out"/>
<feColorMatrix type="matrix" values="0 0 0 0 0.108333 0 0 0 0 0.8395 0 0 0 0 1 0 0 0 1 0"/>
<feBlend mode="normal" in2="BackgroundImageFix" result="effect1_dropShadow_16_103"/>
<feBlend mode="normal" in="SourceGraphic" in2="effect1_dropShadow_16_103" result="shape"/>
</filter>
<filter id="filter1_d_16_103" x="216.738" y="213.097" width="69.0615" height="67.7031" filterUnits="userSpaceOnUse" color-interpolation-filters="sRGB">
<feFlood flood-opacity="0" result="BackgroundImageFix"/>
<feColorMatrix in="SourceAlpha" type="matrix" values="0 0 0 0 0 0 0 0 0 0 0 0 0 0 0 0 0 0 127 0" result="hardAlpha"/>
<feOffset/>
<feGaussianBlur stdDeviation="2.4"/>
<feComposite in2="hardAlpha" operator="out"/>
<feColorMatrix type="matrix" values="0 0 0 0 0.113725 0 0 0 0 0.411765 0 0 0 0 0.47451 0 0 0 1 0"/>
<feBlend mode="normal" in2="BackgroundImageFix" result="effect1_dropShadow_16_103"/>
<feBlend mode="normal" in="SourceGraphic" in2="effect1_dropShadow_16_103" result="shape"/>
</filter>
</defs>
</svg>
