<svg width="400" height="376" viewBox="0 0 400 376" fill="none" xmlns="http://www.w3.org/2000/svg">
<path d="M52.9399 190.643C56.4791 262.517 124.503 282.979 209.227 284.518C338.427 286.866 353.464 248.282 353.464 176.328C353.464 104.375 325.298 30.086 250.617 35.5636C215.134 38.1662 174.862 93.445 144.71 111.789C103.062 137.126 50.2807 136.652 52.9399 190.643Z" fill="#2370A5" fill-opacity="0.16"/>
<path opacity="0.42" d="M355.453 220.75C355.453 220.75 328.542 209.713 316.169 173.724C303.795 137.736 281.365 107.43 238.866 105.394C196.366 103.359 150.398 105.861 135.211 84.4127C120.024 62.9649 152.481 62.4746 152.938 100.105C153.395 137.735 83.4527 206.744 79.7951 260.331C76.1383 313.918 123.361 303.282 182.035 281.743C240.71 260.204 301.957 302.833 340.133 286.889C378.31 270.947 376.653 236.845 355.453 220.75Z" stroke="#4570B4" stroke-miterlimit="10"/>
<path opacity="0.42" d="M349.74 179.042C341.217 179.042 334.308 172.548 334.308 164.536C334.308 156.525 341.217 150.03 349.74 150.03C358.263 150.03 365.172 156.525 365.172 164.536C365.172 172.548 358.263 179.042 349.74 179.042Z" fill="#4570B4"/>
<path opacity="0.42" d="M335.812 177.628C328.119 170.397 328.119 158.673 335.812 151.441C343.505 144.21 355.978 144.21 363.671 151.441C371.364 158.673 371.364 170.397 363.671 177.628C355.978 184.86 343.505 184.86 335.812 177.628Z" stroke="#4570B4" stroke-miterlimit="10"/>
<path opacity="0.42" d="M56.6359 190.643C46.6952 190.643 38.6367 183.068 38.6367 173.724C38.6367 164.38 46.6952 156.805 56.6359 156.805C66.5766 156.805 74.6351 164.38 74.6351 173.724C74.6351 183.068 66.5766 190.643 56.6359 190.643Z" fill="#4570B4"/>
<path opacity="0.42" d="M182.349 128.089L187.208 135.34H176.863L182.349 128.089Z" stroke="#4570B4" stroke-miterlimit="10"/>
<path opacity="0.42" d="M250.874 60.5653L257.364 70.2526H243.546L250.874 60.5653Z" fill="#4570B4"/>
<path opacity="0.42" d="M202.226 80.1354C191.859 80.1354 183.456 72.2361 183.456 62.4919C183.456 52.7477 191.859 44.8485 202.226 44.8485C212.592 44.8485 220.995 52.7477 220.995 62.4919C220.995 72.2361 212.592 80.1354 202.226 80.1354Z" fill="#4570B4"/>
<path d="M200.275 60.3074L199.22 58.4093C198.542 57.1903 199.044 55.6856 200.34 55.0479C201.224 54.614 201.566 53.5883 201.104 52.7573L199.525 49.917C199.064 49.086 197.972 48.7642 197.088 49.1988L195.713 49.8741C194.418 50.5103 193.362 51.5067 192.691 52.7272L192.289 53.4574C191.596 54.7155 191.6 56.2127 192.298 57.4678L195.249 62.7754L197.219 66.3189L200.17 71.6265C200.868 72.8823 202.174 73.7396 203.668 73.9231L204.536 74.0299C205.985 74.2081 207.457 73.9622 208.753 73.326L210.128 72.6507C211.012 72.2168 211.354 71.1911 210.892 70.3601L209.313 67.5198C208.852 66.6889 207.76 66.367 206.876 66.8017C205.58 67.4386 203.979 66.9671 203.301 65.7481L202.246 63.8501L200.275 60.3074Z" fill="white"/>
<path opacity="0.42" d="M64.9383 261.493C64.9383 263.51 66.6783 265.145 68.8239 265.145C70.9695 265.145 72.7095 263.51 72.7095 261.493C72.7095 259.475 70.9695 257.84 68.8239 257.84C66.6783 257.84 64.9383 259.476 64.9383 261.493Z" stroke="#4570B4" stroke-miterlimit="10"/>
<path opacity="0.42" d="M297.241 68.2981C293.274 68.2981 290.058 65.2754 290.058 61.5467C290.058 57.818 293.274 54.7952 297.241 54.7952C301.207 54.7952 304.423 57.818 304.423 61.5467C304.423 65.2754 301.207 68.2981 297.241 68.2981Z" fill="white"/>
<path opacity="0.42" d="M101.136 162.127C97.1692 162.127 93.9535 159.104 93.9535 155.375C93.9535 151.646 97.1692 148.624 101.136 148.624C105.103 148.624 108.318 151.646 108.318 155.375C108.318 159.104 105.103 162.127 101.136 162.127Z" stroke="#4570B4" stroke-miterlimit="10"/>
<path opacity="0.42" d="M327.301 200.597C323.434 200.597 320.3 197.651 320.3 194.017C320.3 190.382 323.434 187.436 327.301 187.436C331.167 187.436 334.302 190.382 334.302 194.017C334.302 197.651 331.167 200.597 327.301 200.597Z" fill="#4570B4"/>
<path opacity="0.42" d="M56.6359 185.395C49.7788 185.395 44.2199 180.17 44.2199 173.724C44.2199 167.278 49.7788 162.053 56.6359 162.053C63.4931 162.053 69.0519 167.278 69.0519 173.724C69.0519 180.17 63.4931 185.395 56.6359 185.395Z" stroke="white" stroke-miterlimit="10"/>
<path opacity="0.42" d="M67.1887 63.1702H153.237C156.913 63.1702 159.894 65.9714 159.894 69.4276V118.286C159.894 121.741 156.914 124.543 153.237 124.543H98.3607V136.86C98.3607 138.921 95.7975 140.043 94.1199 138.715L76.2055 124.543H67.1887C63.5127 124.543 60.5319 121.742 60.5319 118.286V69.4276C60.5319 65.9714 63.5119 63.1702 67.1887 63.1702Z" fill="#4570B4"/>
<path d="M45.3951 69.2637C45.3951 76.5656 47.6271 83.3712 51.4751 89.0864C52.0831 90.0038 52.7391 90.8987 53.4351 91.756C60.4671 100.434 71.4671 106.021 83.8271 106.021C90.1711 106.021 96.1551 104.555 101.427 101.946C113.803 95.8394 122.259 83.4915 122.259 69.2637C122.259 67.6018 122.147 65.9624 121.915 64.3531C119.411 46.3728 103.307 32.4984 83.8271 32.4984C62.6039 32.4984 45.3951 48.9597 45.3951 69.2637Z" fill="#68A8DE"/>
<path d="M53.4351 91.753C60.4671 100.431 71.4671 106.018 83.8271 106.018C90.1711 106.018 96.1551 104.552 101.427 101.943C100.707 100.251 98.4991 95.7612 94.5871 93.2495C89.7071 90.1061 74.8751 88.2186 64.5871 89.0458C58.5151 89.5271 55.1631 90.798 53.4351 91.753Z" fill="#C6606C"/>
<path d="M101.136 50.6156L100.734 68.5666C100.734 68.5666 100.127 86.9056 84.2495 86.5808C68.3719 86.2559 65.0175 63.6004 65.0175 63.6004L67.5151 49.8553C67.5151 49.8553 86.0743 38.2129 101.136 50.6156Z" fill="white"/>
<path d="M84.1423 82.2665C84.1423 82.2665 82.9631 89.2075 84.7423 91.4778C86.5223 93.7473 81.2087 101.634 81.2087 101.634L68.9143 91.0318C68.9143 91.0318 69.7311 83.2599 69.5087 76.4536L84.1423 82.2665Z" fill="white"/>
<path d="M101.044 54.7396C101.044 54.7396 96.4751 56.1067 91.5895 55.7044C86.7039 55.3013 84.9895 53.4484 84.9895 53.4484C84.9895 53.4484 83.3607 54.0928 80.7039 54.0928C78.0471 54.0928 76.0751 52.8844 76.0751 52.8844C76.0751 52.8844 77.8751 55.7848 77.1039 59.4914C76.3327 63.1981 73.7607 64.1644 73.7607 64.1644C73.7607 64.1644 72.1319 60.4578 69.3039 60.4578C66.4759 60.4578 65.4463 63.2778 66.1751 66.9844C66.9039 70.6902 71.4471 71.5768 71.4471 71.5768L69.5103 76.4536C69.5103 76.4536 62.1903 69.0794 61.3327 60.9413C60.4759 52.8039 64.8471 50.3862 64.8471 50.3862C64.8471 50.3862 64.4823 44.3432 73.0647 42.2488C81.6471 40.1545 87.3047 40.3154 93.7327 43.7799C93.7327 43.7799 99.1327 39.9124 103.676 42.2488C108.219 44.5853 106.933 49.5808 104.705 50.8698C104.705 50.8698 109.076 51.9173 108.134 56.9933C107.191 62.0693 100.889 61.6722 100.889 61.6722L101.044 54.7396Z" fill="#00496A"/>
<path d="M84.2495 86.5807C84.2495 86.5807 72.7095 83.7104 71.5663 76.4536C71.5663 76.4536 68.7039 86.9755 84.2495 90.5475C84.2495 90.5475 83.7895 87.4215 84.2495 86.5807Z" fill="#D9D9D9"/>
<path opacity="0.42" d="M24.8289 46.9373C23.228 37.7298 29.8708 29.0457 39.666 27.5408C49.4612 26.036 58.6996 32.2802 60.3005 41.4877C61.9014 50.6951 55.2587 59.3792 45.4635 60.8841C35.6683 62.389 26.4299 56.1448 24.8289 46.9373Z" fill="#4570B4"/>
<path d="M40.4103 48.7597L40.3463 47.9738C40.1535 46.342 40.7319 44.5582 42.3391 42.7452C43.7863 41.1434 44.5903 39.9643 44.5903 38.6046C44.5903 37.063 43.5615 36.0358 41.5367 36.0057C40.3791 36.0057 39.0927 36.3682 38.2887 36.9427L37.5167 35.0387C38.5775 34.3137 40.4103 33.8302 42.1143 33.8302C45.8119 33.8302 47.4839 35.9764 47.4839 38.273C47.4839 40.3282 46.2623 41.8089 44.7191 43.5318C43.3039 45.1034 42.7903 46.433 42.8863 47.9746L42.9183 48.7604L40.4103 48.7597ZM39.7039 52.9912C39.7039 51.8729 40.5071 51.0871 41.6327 51.0871C42.7575 51.0871 43.5295 51.8729 43.5295 52.9912C43.5295 54.0492 42.7903 54.8651 41.6007 54.8651C40.4751 54.8651 39.7039 54.0492 39.7039 52.9912Z" fill="white"/>
<path d="M73.1183 242.81C73.1759 242.982 73.2472 243.125 73.3328 243.242C74.8504 245.31 76.4536 247.315 78.1432 249.26H78.1504C133.058 312.688 274.27 312.688 274.27 312.688V236.984H73.3328C73.3328 236.984 72.5599 241.105 73.1183 242.81Z" fill="#2270A5" fill-opacity="0.48"/>
<path d="M73.1183 242.81C73.1759 242.982 73.2471 243.125 73.3327 243.242C74.8503 245.31 76.4535 247.315 78.1431 249.26H78.1503L274.27 270.239V242.811H73.1183V242.81Z" fill="#2270A5" fill-opacity="0.85"/>
<path d="M182.035 183.432L191.755 193.118C191.755 193.118 193.747 191.193 196.131 188.245C197.267 186.831 198.491 185.184 199.619 183.402C201.099 181.071 202.427 178.514 203.187 175.95C205.747 167.34 204.699 149.179 204.699 149.179C204.699 149.179 200.555 149.6 199.139 151.081C191.163 159.428 182.035 183.432 182.035 183.432Z" fill="#FF6A76"/>
<path d="M218.574 215.074H288.177L294.533 164.765C295.263 159.007 290.99 153.762 284.977 153.03L280.79 152.516L227.606 146.019L218.574 215.074Z" fill="#4570B4"/>
<path d="M235.57 147.682C235.57 147.682 258.219 154.529 259.446 156.29C260.674 158.05 250.039 189.252 250.039 189.252L252.084 215.074H205.966L203.642 190.433C203.642 190.433 198.706 185.34 198.4 176.928C198.094 168.516 204.703 149.179 204.703 149.179L220.794 147.193L235.57 147.682Z" fill="#7769AF"/>
<path d="M229.086 99.2151C229.086 99.2151 244.874 92.8344 256.08 107.723C267.287 122.612 255.681 146.019 255.681 146.019C255.681 146.019 227.084 142.509 219.168 141.792C211.252 141.074 209.651 141.074 209.651 141.074C209.651 141.074 205.573 117.56 214.276 108.915C222.98 100.269 229.086 99.2151 229.086 99.2151Z" fill="#00496A"/>
<path d="M223.212 157.285L236.54 148.697C236.54 148.697 235.444 145.411 235.716 142.125C235.78 141.396 235.908 140.666 236.132 139.974C236.244 139.628 236.38 139.29 236.54 138.959L223.212 138.335C223.212 138.335 223.124 139.35 222.876 140.659C222.676 141.681 222.38 142.884 221.932 143.93C221.612 144.704 221.212 145.389 220.716 145.862C218.675 147.81 223.212 157.285 223.212 157.285Z" fill="white"/>
<path d="M221.931 143.93C223.643 143.982 230.995 144.088 235.715 142.125C235.779 141.396 235.907 140.666 236.131 139.974C236.131 139.974 227.147 141.004 222.875 140.659C222.675 141.681 222.379 142.884 221.931 143.93Z" fill="#D9D9D9"/>
<path d="M215.714 104.866L213.492 122.132C213.492 122.132 210.579 139.924 225.853 141.65C241.126 143.377 246.261 126.781 246.261 126.781L248.066 108.453C248.066 108.453 231.959 94.9054 215.714 104.866Z" fill="white"/>
<path d="M222.677 106.205C222.677 106.205 224.674 110.824 231.246 114.101C237.072 117.006 242.538 117.808 242.538 117.808C242.538 117.808 243.415 122.67 246.366 125.722C246.366 125.722 251.468 116.621 249.386 108.784C247.302 100.948 236.542 97.1629 227.1 97.96C217.658 98.7571 214.256 102.011 213.006 107.191C211.757 112.371 213.849 119.361 213.849 119.361C213.849 119.361 215.853 107.816 222.677 106.205Z" fill="#00496A"/>
<path d="M248.066 121.915C248.066 121.915 249.885 108.784 239.11 101.812C232.094 97.2712 223.265 98.4796 223.265 98.4796C223.265 98.4796 228.835 94.5384 239.805 99.0887C250.774 103.639 251.33 113.928 250.218 121.915H248.066Z" fill="#68A8DE"/>
<path d="M272.301 215.074H288.177L294.533 164.765C295.263 159.007 290.99 153.762 284.977 153.03L280.79 152.516L272.301 215.074Z" fill="#375C93"/>
<path d="M233.168 138.487C240.454 138.487 245.863 133.718 246.105 133.502L245.126 132.502C245.068 132.555 239.156 137.744 231.766 137.053L231.626 138.415C232.149 138.464 232.663 138.487 233.168 138.487Z" fill="#375C93"/>
<path d="M52.6103 243.243H270.988C276.829 243.243 282.393 240.976 286.28 237.013L298.274 224.787C302.926 220.043 299.222 212.53 292.231 212.53H79.0439C71.6759 212.53 64.5959 215.131 59.2959 219.783L46.9863 230.59C41.7495 235.188 45.3303 243.243 52.6103 243.243Z" fill="#2270A5" fill-opacity="0.72"/>
<path d="M152.197 152.071C152.59 152.272 153.207 152.611 153.879 152.988L154.009 152.792C152.012 151.596 149.054 149.727 149.254 149.27C149.554 148.585 151.054 148.943 152.168 149.512C152.811 149.84 153.979 150.493 155.105 151.133L155.186 151.01C153.206 149.833 149.9 147.778 150.11 147.296C150.41 146.611 151.91 146.969 153.025 147.538C153.73 147.898 155.066 148.649 156.286 149.343L156.382 149.2C154.415 148.008 151.853 146.353 152.039 145.926C152.339 145.241 153.839 145.599 154.954 146.168C156.456 146.935 160.819 149.471 160.819 149.471L163.997 150.559C163.311 149.511 161.382 145.644 162.282 145.644C163.182 145.644 165.668 148.342 166.697 151.123C167.467 153.204 167.564 155.06 167.565 155.861L195.41 189.122C195.41 189.122 194.75 190.096 193.754 191.391C190.866 195.147 184.138 195.973 180.254 193.117C177.186 190.862 174.764 187.883 172.393 184.841C167.924 179.108 161.26 163.899 159.694 160.258L153.391 154.705C151.664 153.656 149.462 152.227 149.625 151.857C149.888 151.253 151.213 151.569 152.197 152.071Z" fill="white"/>
<path d="M225.45 220.616C225.45 220.616 222.193 222.872 220.907 225.934C219.622 228.995 227.85 230.967 241.586 226.583C251.581 223.394 234.707 213.607 225.45 220.616Z" fill="#00496A"/>
<path d="M230.623 139.311H232.464C233.121 139.311 233.653 138.802 233.653 138.174V137.111C233.653 136.483 233.121 135.974 232.464 135.974H230.623C229.966 135.974 229.434 136.483 229.434 137.111V137.642V138.174C229.434 138.802 229.966 139.311 230.623 139.311Z" fill="#00496A"/>
<path d="M240.197 125.809C239.178 130.594 241.828 135.149 246.114 135.983C250.401 136.817 254.701 133.615 255.718 128.83C256.736 124.045 254.087 119.491 249.801 118.656C245.515 117.822 241.214 121.024 240.197 125.809Z" fill="#4570B4"/>
<path d="M244.516 126.65C243.915 129.472 245.478 132.159 248.006 132.651C250.534 133.144 253.071 131.255 253.672 128.432C254.273 125.61 252.71 122.922 250.182 122.43C247.654 121.938 245.117 123.827 244.516 126.65Z" fill="#68A8DE"/>
<path d="M255.716 154.406C255.716 154.406 259.606 154.954 261.185 157.316C267.95 167.44 281.125 198.396 281.125 198.396L268.421 203.678C268.421 203.678 251.718 185.485 250.184 176.83C248.649 168.173 255.716 154.406 255.716 154.406Z" fill="#FF6A76"/>
<path d="M269.621 201.037L243.546 216.981L247.227 224.658C247.227 224.658 270.695 216.736 277.904 211.601C285.113 206.465 281.125 198.396 281.125 198.396C281.125 198.396 277.137 197.956 269.621 201.037Z" fill="white"/>
<path d="M244.313 216.736C244.313 216.736 235.518 216.345 232.349 216.345C229.179 216.345 223.657 221.235 224.27 222.8C224.884 224.365 231.224 219.573 231.224 219.573L231.582 220.208C231.582 220.208 225.958 223.436 225.651 224.658C225.345 225.881 226.622 225.686 228.463 224.952C230.304 224.219 233.065 222.555 233.065 222.555L233.371 222.897C233.371 222.897 228.054 225.978 228.054 227.103C228.054 228.228 231.888 226.957 234.7 225.196L235.058 225.734C235.058 225.734 231.581 227.396 231.326 228.473C231.07 229.549 232.962 229.109 235.058 228.179C237.154 227.25 239.097 227.152 241.806 226.761C244.516 226.37 247.731 224.486 247.731 224.486L244.313 216.736Z" fill="white"/>
<path d="M82.6527 172.016L95.1575 230.968H187.802L175.369 172.356C175.106 171.118 173.968 170.228 172.647 170.228H84.1823C83.1959 170.227 82.4567 171.091 82.6527 172.016Z" fill="#2270A5"/>
<path d="M187.802 230.968L213.253 223.185C214.152 222.91 214.761 222.123 214.761 221.234C214.761 220.101 213.783 219.182 212.578 219.182H185.302L187.802 230.968Z" fill="#00496A"/>
<path d="M254.587 156.801C254.587 156.801 248.889 171.947 252.342 182.343C252.342 182.343 240.694 170.172 254.587 156.801Z" fill="#C6606C"/>
<path d="M196.131 188.245C197.267 186.831 198.491 185.184 199.619 183.402C197.267 174.717 202.739 155.375 202.739 155.375C190.747 169.746 194.091 183.094 196.131 188.245Z" fill="#C6606C"/>
<path d="M169.794 173.724L95.1575 230.968H180.253L169.794 173.724Z" fill="#111A29" fill-opacity="0.4"/>
<path d="M124.935 210.207C121.135 208.737 119.321 204.648 120.885 201.075C122.449 197.502 126.798 195.797 130.599 197.267C134.4 198.737 136.213 202.825 134.649 206.399C133.085 209.972 128.736 211.677 124.935 210.207Z" fill="#A6D6F7"/>
<path d="M235.803 145.242L223.211 157.285C223.211 157.285 225.395 160.189 229.031 160.109C232.667 160.029 234.71 155.684 235.738 153.424C236.767 151.164 238.866 148.697 238.866 148.697L235.803 145.242Z" fill="#FFA9B3"/>
<path d="M223.212 157.285C223.212 157.285 219.967 159.14 216.796 157.852C213.625 156.563 214.482 154.592 215.596 152.515C216.71 150.438 217.91 146.732 217.91 146.732L221.526 144.773C221.526 144.773 220.885 152.691 223.212 157.285Z" fill="#FFA9B3"/>
<path d="M203.797 180.546L235.526 183.432C235.526 183.432 228.412 188.227 217.46 186.776C206.507 185.327 203.797 180.546 203.797 180.546Z" fill="#55535F"/>
<path opacity="0.42" d="M274.718 83.569H332.095C335.753 83.569 338.718 86.3559 338.718 89.794V104.09C338.718 107.528 335.753 110.315 332.095 110.315H283.762L268.094 118.828V110.315V106.2V89.794C268.095 86.3559 271.06 83.569 274.718 83.569Z" fill="#4570B4"/>
<path d="M334.308 90.0369H274.538" stroke="white" stroke-miterlimit="10" stroke-linecap="round" stroke-linejoin="round"/>
<path d="M334.308 96.8959H274.538" stroke="white" stroke-miterlimit="10" stroke-linecap="round" stroke-linejoin="round"/>
<path d="M334.308 103.754H274.538" stroke="white" stroke-miterlimit="10" stroke-linecap="round" stroke-linejoin="round"/>
<path d="M271.433 249.799C269.931 238.129 279.73 239.883 286.431 246.039C293.132 252.194 299.702 248.757 292.269 237.257C284.836 225.756 279.393 222.218 280.422 216.428C281.452 210.637 286.825 213.169 296.12 217.986C305.415 222.803 296.63 210.228 297.333 198.299C298.034 186.371 310.635 192.331 311.694 202.371C312.754 212.412 307.984 223.655 314.099 221.424C320.214 219.194 323.913 205.857 329.474 212.153C335.034 218.45 313.778 239.795 314.492 246.241C315.206 252.685 330.499 233.046 334.893 239.513C339.286 245.979 320.278 289.161 303.822 287.951C282.915 286.414 272.934 261.468 271.433 249.799Z" fill="#8D366A"/>
<path d="M305.307 203.775C305.307 203.775 307.935 217.278 306.884 234.404C305.833 251.532 303.451 294.623 303.451 294.623" stroke="#AA4451" stroke-miterlimit="10"/>
<path d="M323.177 220.75C323.177 220.75 311.1 234.222 306.714 237.196C306.714 237.196 291.117 223.068 288.138 220.75" stroke="#AA4451" stroke-miterlimit="10"/>
<path d="M330.31 247.725C330.31 247.725 312.15 264.897 305.05 266.037L278.328 249.198" stroke="#AA4451" stroke-miterlimit="10"/>
<path d="M310.959 281.319C310.959 281.319 303.088 264.957 307.329 256.167C311.57 247.376 317.65 252.534 319.56 259.541C321.47 266.547 327.639 266.768 327.641 255.718C327.642 244.668 325.428 240.003 328.778 236.352C332.127 232.701 334.749 236.632 339.086 243.739C343.424 250.846 342.965 238.5 348.869 230.41C354.774 222.32 360.912 231.554 357.1 239.025C353.288 246.496 344.84 252.473 350.143 253.359C355.446 254.246 364.094 246.369 365.139 253.016C366.185 259.664 341.583 266.122 339.16 270.931C336.737 275.74 356.38 268.089 356.529 274.388C356.678 280.687 333.822 291.744 323.475 290.098C313.13 288.452 310.959 281.319 310.959 281.319Z" fill="#8C5576"/>
<path d="M352.434 235.323C352.434 235.323 322.476 280.57 316.169 294.623" stroke="#AA4451" stroke-miterlimit="10"/>
<path d="M357.339 256.801L336.269 260.331L331.936 243.298" stroke="#AA4451" stroke-miterlimit="10"/>
<path d="M346.203 277.122L323.694 280.785L314.417 261.577" stroke="#AA4451" stroke-miterlimit="10"/>
<path d="M324.345 294.623H286.27L289.54 312.688H320.374L324.345 294.623Z" fill="#375C93"/>
<path d="M285.804 299.619H324.459C325.879 299.619 327.03 298.536 327.03 297.202V295.284C327.03 293.949 325.879 292.867 324.459 292.867H285.804C284.384 292.867 283.233 293.949 283.233 295.284V297.202C283.233 298.536 284.384 299.619 285.804 299.619Z" fill="#4570B4"/>
<path opacity="0.42" d="M148.174 314.671C133.575 314.671 121.739 303.545 121.739 289.822C121.739 276.098 133.575 264.972 148.174 264.972C162.774 264.972 174.61 276.098 174.61 289.822C174.61 303.545 162.774 314.671 148.174 314.671Z" fill="#4570B4"/>
<path d="M131.564 280.643H164.785C165.694 280.643 166.432 281.336 166.432 282.191V299.399C166.432 300.254 165.694 300.947 164.785 300.947H131.564C130.654 300.947 129.918 300.254 129.918 299.399V282.191C129.918 281.335 130.655 280.643 131.564 280.643ZM131.072 283.125L146.672 292.713C146.804 292.794 146.958 292.836 147.11 292.836C147.244 292.836 147.379 292.804 147.501 292.739L165.673 283.151C166.058 282.947 166.195 282.49 165.979 282.128C165.763 281.765 165.274 281.637 164.89 281.84L147.142 291.204L131.948 281.866C131.58 281.638 131.082 281.736 130.841 282.084C130.598 282.432 130.702 282.898 131.072 283.125Z" fill="white"/>
<path d="M127.77 287.141C122.359 287.141 117.973 283.018 117.973 277.932C117.973 272.846 122.359 268.723 127.77 268.723C133.18 268.723 137.566 272.846 137.566 277.932C137.566 283.018 133.18 287.141 127.77 287.141Z" fill="#FFA9B3"/>
</svg>
